Coordinates
version=1
nRows=18
nColumns=38
inDegrees=yes

Units are S.I. units (second, meters, Newtons, ...)
Angles are in degrees.

endheader
time	pelvis_tilt	pelvis_list	pelvis_rotation	pelvis_tx	pelvis_ty	pelvis_tz	hip_flexion_r	hip_adduction_r	hip_rotation_r	knee_angle_r	ankle_angle_r	subtalar_angle_r	mtp_angle_r	hip_flexion_l	hip_adduction_l	hip_rotation_l	knee_angle_l	ankle_angle_l	subtalar_angle_l	mtp_angle_l	lumbar_extension	lumbar_bending	lumbar_rotation	arm_flex_r	arm_add_r	arm_rot_r	elbow_flex_r	pro_sup_r	wrist_flex_r	wrist_dev_r	arm_flex_l	arm_add_l	arm_rot_l	elbow_flex_l	pro_sup_l	wrist_flex_l	wrist_dev_l
      5.47000000	     -5.67178478	     -9.59255961	     -8.78026279	     -0.21571034	      0.80948921	      2.61564001	     26.56010011	     19.14450074	      4.41168085	    -43.44529231	     18.62695331	      0.00000000	      0.00000000	     14.37859617	    -16.42333179	     -1.15686472	    -93.16366926	    -18.08051820	      0.00000000	      0.00000000	     -7.16708041	     10.76346722	      1.48558812	     -4.51382429	    -23.96035628	     21.86905425	    111.61803496	     83.85684845	      0.00000000	      0.00000000	     -3.66023013	    -15.19765029	     17.71672681	    113.35377366	     99.74437490	      0.00000000	      0.00000000
      5.48000000	     -5.78870585	     -9.59205348	     -8.34983641	     -0.21782015	      0.80996126	      2.61506038	     24.03764569	     18.64051276	      4.28374737	    -42.21808820	     20.03553378	      0.00000000	      0.00000000	     17.66939862	    -16.28827350	     -0.11964760	    -94.45140190	    -15.73217859	      0.00000000	      0.00000000	     -7.03523340	     10.83335861	      2.26309949	     -1.25121854	    -23.65784484	     23.50763605	    110.81392856	     85.46168725	      0.00000000	      0.00000000	     -5.05847567	    -14.90860113	     17.14611190	    112.18329398	    100.08789545	      0.00000000	      0.00000000
      5.49000000	     -5.50789315	     -9.31062771	     -7.35346991	     -0.21950097	      0.81210614	      2.61366944	     20.98299534	     17.69099376	      4.09559104	    -40.64077345	     20.92065304	      0.00000000	      0.00000000	     20.63640918	    -15.53603956	      1.07199354	    -95.08059165	    -13.36353263	      0.00000000	      0.00000000	     -7.02488056	     10.58659638	      2.68280877	      1.72784932	    -23.21712965	     24.81142293	    110.60575602	     87.01468296	      0.00000000	      0.00000000	     -6.47229347	    -14.73503409	     16.58787728	    111.56914734	    100.21419664	      0.00000000	      0.00000000
      5.50000000	     -5.05926225	     -8.77907976	     -6.00963487	     -0.22071538	      0.81551275	      2.61176101	     17.69751543	     16.47292740	      3.95485201	    -38.89460150	     21.31256256	      0.00000000	      0.00000000	     23.37335494	    -14.25700198	      2.21033796	    -95.06230479	    -11.01898072	      0.00000000	      0.00000000	     -7.05446097	     10.04895649	      2.87339944	      4.39300456	    -22.64919061	     25.72127083	    110.97560946	     88.34784157	      0.00000000	      0.00000000	     -7.94518642	    -14.69013596	     16.03009045	    111.51749485	    100.00755427	      0.00000000	      0.00000000
      5.51000000	     -4.75085538	     -7.99204901	     -4.62059857	     -0.22165609	      0.81985851	      2.60967884	     14.45811744	     15.09671520	      3.91487930	    -36.95894967	     21.15827668	      0.00000000	      0.00000000	     26.03443186	    -12.57564432	      3.09902973	    -94.36811609	     -8.78805403	      0.00000000	      0.00000000	     -6.94277645	      9.24095917	      3.01994500	      6.72763699	    -21.97234748	     26.26105151	    111.81136133	     89.33284899	      0.00000000	      0.00000000	     -9.53617204	    -14.75692798	     15.45827884	    111.92984897	     99.41661927	      0.00000000	      0.00000000
      5.52000000	     -4.78975616	     -6.94517639	     -3.41693464	     -0.22253610	      0.82493562	      2.60766648	     11.44083336	     13.59247226	      3.96925333	    -34.78184756	     20.34767338	      0.00000000	      0.00000000	     28.71058861	    -10.61229966	      3.59658964	    -92.96355043	     -6.78306167	      0.00000000	      0.00000000	     -6.53408613	      8.17093304	      3.29411025	      8.72783120	    -21.20547009	     26.52099735	    112.95460324	     89.89976125	      0.00000000	      0.00000000	    -11.26470202	    -14.90262997	     14.85507090	    112.64867833	     98.46944562	      0.00000000	      0.00000000
      5.53000000	     -5.20063101	     -5.67734354	     -2.47638642	     -0.22329859	      0.83058238	      2.60587905	      8.68637010	     11.92227990	      4.06846361	    -32.39539697	     18.76370159	      0.00000000	      0.00000000	     31.35808803	     -8.46303842	      3.64307986	    -90.83553655	     -5.10591977	      0.00000000	      0.00000000	     -5.79599160	      6.84164096	      3.79872326	     10.41293420	    -20.36807256	     26.61105642	    114.25238685	     90.04332065	      0.00000000	      0.00000000	    -13.09672379	    -15.10111053	     14.20098968	    113.50927146	     97.26698012	      0.00000000	      0.00000000
      5.54000000	     -5.84909435	     -4.23636822	     -1.75951541	     -0.22381834	      0.83679124	      2.60426421	      6.12237617	     10.03073979	      4.13366869	    -29.90691263	     16.32244598	      0.00000000	      0.00000000	     33.81098337	     -6.20366883	      3.27466368	    -87.99598350	     -3.81839440	      0.00000000	      0.00000000	     -4.83511184	      5.26873425	      4.54455770	     11.83485402	    -19.48254528	     26.61461839	    115.59264903	     89.81610051	      0.00000000	      0.00000000	    -14.96806655	    -15.34081997	     13.48238537	    114.38370452	     95.96016317	      0.00000000	      0.00000000
      5.55000000	     -6.53131537	     -2.64697800	     -1.19452381	     -0.22397381	      0.84359170	      2.60265221	      3.62102648	      7.90129626	      4.06400080	    -27.42193524	     12.98755282	      0.00000000	      0.00000000	     35.86060359	     -3.88958006	      2.60552118	    -84.46763578	     -2.92729849	      0.00000000	      0.00000000	     -3.83883010	      3.49093066	      5.47102770	     13.06921083	    -18.56965621	     26.57807035	    116.91250538	     89.31218241	      0.00000000	      0.00000000	    -16.81699693	    -15.61564600	     12.69846326	    115.20213297	     94.71860610	      0.00000000	      0.00000000
      5.56000000	     -7.07363310	     -0.93659802	     -0.73112567	     -0.22361676	      0.85093104	      2.60101181	      1.06521130	      5.57820243	      3.74882200	    -24.98808980	      8.76861773	      0.00000000	      0.00000000	     37.34357987	     -1.55484259	      1.78595587	    -80.27743642	     -2.38806500	      0.00000000	      0.00000000	     -2.98929014	      1.56573014	      6.49645023	     14.19011800	    -17.64251649	     26.53325475	    118.18405229	     88.64688479	      0.00000000	      0.00000000	    -18.60175476	    -15.91392035	     11.85432521	    115.94619286	     93.69867757	      0.00000000	      0.00000000
      5.57000000	     -7.38746594	      0.83519043	     -0.34762315	     -0.22281281	      0.85872010	      2.59941211	     -1.59632303	      3.15752555	      3.09139663	    -22.59735625	      3.72353303	      0.00000000	      0.00000000	     38.18950598	      0.76789028	      0.96889406	    -75.46542781	     -2.12275440	      0.00000000	      0.00000000	     -2.39824612	     -0.43335532	      7.55812016	     15.24738906	    -16.71007505	     26.51810557	    119.39449873	     87.93703112	      0.00000000	      0.00000000	    -20.30246813	    -16.21380723	     10.94740683	    116.62415806	     93.01697380	      0.00000000	      0.00000000
      5.58000000	     -7.46988567	      2.58056908	     -0.03559896	     -0.22179748	      0.86678437	      2.59784868	     -4.32826812	      0.76812116	      2.04159460	    -20.23323184	     -2.02556209	      0.00000000	      0.00000000	     38.41852862	      3.01493927	      0.29339755	    -70.09247831	     -2.04669350	      0.00000000	      0.00000000	     -2.08787556	     -2.40976869	      8.61844872	     16.25985133	    -15.78588802	     26.57559763	    120.53456528	     87.28449610	      0.00000000	      0.00000000	    -21.91779338	    -16.48325291	      9.96597501	    117.24434898	     92.73245867	      0.00000000	      0.00000000
      5.59000000	     -7.37419476	      4.19793103	      0.21324182	     -0.22067151	      0.87487082	      2.59631225	     -7.03545973	     -1.44557459	      0.62668585	    -17.92688348	     -8.27084999	      0.00000000	      0.00000000	     38.11237753	      5.07961132	     -0.12906744	    -64.23769647	     -2.09520955	      0.00000000	      0.00000000	     -2.00667037	     -4.23953648	      9.65227490	     17.22569229	    -14.89141193	     26.73724165	    121.59678243	     86.76521998	      0.00000000	      0.00000000	    -23.45949057	    -16.68795796	      8.89794339	    117.80194269	     92.83887523	      0.00000000	      0.00000000
      5.60000000	     -7.17684934	      5.57743160	      0.40926308	     -0.21941751	      0.88275259	      2.59490429	     -9.61137659	     -3.34066658	     -1.03510883	    -15.78493168	    -14.71039018	      0.00000000	      0.00000000	     37.38658693	      6.83344649	     -0.23273961	    -57.99772350	     -2.23794381	      0.00000000	      0.00000000	     -2.06095746	     -5.78690513	     10.64217697	     18.13597810	    -14.05020765	     27.01199014	    122.57637857	     86.42597793	      0.00000000	      0.00000000	    -24.94442318	    -16.80666729	      7.73859411	    118.28308119	     93.26898594	      0.00000000	      0.00000000
      5.61000000	     -6.95536060	      6.61300272	      0.56096167	     -0.21804833	      0.89020544	      2.59374947	    -11.96140759	     -4.79786247	     -2.74881475	    -13.96937525	    -20.96815390	      0.00000000	      0.00000000	     36.36983382	      8.15935625	     -0.01234180	    -51.49980156	     -2.47347035	      0.00000000	      0.00000000	     -2.15013256	     -6.93816384	     11.58570484	     18.97749452	    -13.27750498	     27.39351296	    123.47054797	     86.28896924	      0.00000000	      0.00000000	    -26.38571654	    -16.84008887	      6.49637077	    118.67612613	     93.91134536	      0.00000000	      0.00000000
      5.62000000	     -6.77385228	      7.23230146	      0.66859156	     -0.21665266	      0.89692446	      2.59289741	    -13.99035590	     -5.74768347	     -4.28212262	    -12.64567931	    -26.64391239	      0.00000000	      0.00000000	     35.18933444	      8.97623160	      0.47401582	    -44.91750603	     -2.81017018	      0.00000000	      0.00000000	     -2.19161644	     -7.62938368	     12.49649636	     19.73058179	    -12.57472054	     27.87203066	    124.27913096	     86.35933924	      0.00000000	      0.00000000	    -27.78677308	    -16.80376451	      5.19921876	    118.97916084	     94.63724072	      0.00000000	      0.00000000
      5.63000000	     -6.67588016	      7.42192552	      0.71838259	     -0.21535265	      0.90260179	      2.59233093	    -15.59530655	     -6.19336512	     -5.41608207	    -11.94079644	    -31.37923477	      0.00000000	      0.00000000	     33.96880480	      9.25341766	      1.11527396	    -38.46532286	     -3.24572013	      0.00000000	      0.00000000	     -2.12844830	     -7.85269107	     13.39091760	     20.37113816	    -11.93271572	     28.43514377	    125.00678807	     86.62984572	      0.00000000	      0.00000000	    -29.13998068	    -16.71100310	      3.89660097	    119.20183800	     95.33078629	      0.00000000	      0.00000000
      5.64000000	     -6.69052863	      7.22332187	      0.68477700	     -0.21415517	      0.90707256	      2.59203423	    -16.69566566	     -6.20961548	     -5.99127186	    -11.93623261	    -34.92304744	      0.00000000	      0.00000000	     32.83570690	      9.02199875	      1.76763439	    -32.36656384	     -3.75236763	      0.00000000	      0.00000000	     -1.92744444	     -7.65429107	     14.27565039	     20.87321031	    -11.33881395	     29.06463853	    125.66126690	     87.08158790	      0.00000000	      0.00000000	    -30.43017080	    -16.56303186	      2.64650560	    119.36159062	     95.91266218	      0.00000000	      0.00000000
